<svg width="759" height="796" viewBox="0 0 759 796" fill="none" xmlns="http://www.w3.org/2000/svg">
<mask id="mask0_432_23775" style="mask-type:luminance" maskUnits="userSpaceOnUse" x="0" y="0" width="759" height="796">
<path d="M750.499 496.5C749.499 593.5 705.666 675.5 618.999 742.5C532.332 809.5 444.666 812.667 355.999 752C267.332 691.333 180.999 635.5 96.9995 584.5C12.9995 533.5 -16.0006 460.333 9.99947 365C35.9995 269.667 72.6665 182.5 119.999 103.5C167.332 24.5 235.832 -9.16702 325.499 2.49998C415.166 14.167 510.666 24.5 611.999 33.5C713.332 42.5 761.999 97.667 757.999 199C753.999 300.333 751.499 399.5 750.499 496.5Z" fill="white"/>
</mask>
<g mask="url(#mask0_432_23775)">
<path d="M750.499 496.5C749.499 593.5 705.666 675.5 618.999 742.5C532.332 809.5 444.666 812.667 355.999 752C267.332 691.333 180.999 635.5 96.9995 584.5C12.9995 533.5 -16.0006 460.333 9.99947 365C35.9995 269.667 72.6665 182.5 119.999 103.5C167.332 24.5 235.832 -9.16702 325.499 2.49998C415.166 14.167 510.666 24.5 611.999 33.5C713.332 42.5 761.999 97.667 757.999 199C753.999 300.333 751.499 399.5 750.499 496.5Z" fill="#008274"/>
</g>
</svg>
